<?xml version="1.0" encoding="UTF-8"?>
<svg width="154px" height="40px" viewBox="0 0 154 40" version="1.1" xmlns="http://www.w3.org/2000/svg" xmlns:xlink="http://www.w3.org/1999/xlink">
    <title>maquina_logo_horizontal</title>
    <defs>
        <linearGradient x1="21.4892228%" y1="21.8476723%" x2="99.4148675%" y2="93.4678819%" id="linearGradient-1">
            <stop stop-color="#50B1FD" stop-opacity="0.96" offset="0%"></stop>
            <stop stop-color="#DE77DE" stop-opacity="0.96" offset="100%"></stop>
        </linearGradient>
    </defs>
    <g id="Page-1" stroke="none" stroke-width="1" fill="none" fill-rule="evenodd">
        <g id="og-del-prompt-al-mvp" transform="translate(-58, -45)">
            <g id="maquina_logo_horizontal" transform="translate(58, 45)">
                <ellipse id="Oval-2" fill="#FFFFFF" cx="19.8826291" cy="20" rx="19.8826291" ry="20"></ellipse>
                <g id="Maquina-original" fill="url(#linearGradient-1)">
                    <path d="M19.8826291,0 C30.863502,0 39.7652582,8.954305 39.7652582,20 C39.7652582,31.045695 30.863502,40 19.8826291,40 C8.90175627,40 0,31.045695 0,20 C0,8.954305 8.90175627,0 19.8826291,0 Z M19.5123666,3.92654937 L19.2318219,3.93061249 C10.066881,4.1516506 0.899383328,13.0108229 4.84391145,25.7455397 L4.89595171,25.7196399 C5.03950736,25.6456574 5.40759414,25.4442477 6.00021673,25.1154127 L6.31523936,24.9403764 C7.37206369,24.3524688 8.99178877,23.4451135 11.1744332,22.2183176 C12.1588581,26.0395969 15.6132872,28.861736 19.7236383,28.861736 C21.1004998,28.861736 22.4037618,28.5450702 23.565239,27.9802592 L28.2359708,30.5640482 C19.9923791,35.5416439 13.274414,34.3842037 8.08207539,27.0917274 C7.0064315,27.7412162 6.30390244,28.165413 5.94930133,28.3795261 C10.6467864,36.5004191 23.2474159,40.1791198 32.2584465,30.0193204 C32.0693245,29.8896091 29.9493195,28.660106 25.898479,26.3314714 C27.5371326,24.720477 28.5541244,22.473511 28.5541244,19.9878464 C28.5541244,16.937089 27.0221635,14.245899 24.6891367,12.6487639 L24.6733316,7.23348824 C33.0021139,12.0657482 35.2516793,18.5314311 31.422028,26.6305368 C32.5087877,27.2610619 33.2185768,27.672873 33.5768425,27.8807345 C38.3674092,19.8149403 35.4602298,6.95654284 22.2490973,3.96214869 C22.227736,4.19294517 22.1849788,6.68701166 22.1211273,11.4449208 C21.3587648,11.229299 20.5546055,11.1139568 19.7236383,11.1139568 C15.0455132,11.1139568 11.2170341,14.7696036 10.9126585,19.3932942 L6.45100052,22.0001023 C6.45100052,12.3355823 10.8982757,7.14498437 19.7928261,6.42830844 L19.7928261,3.9279132 L19.5123666,3.92654937 Z M19.7645201,16.2082267 C21.864315,16.2082267 23.566535,17.9188135 23.566535,20.0289292 C23.566535,22.1390449 21.864315,23.8496317 19.7645201,23.8496317 C17.6647253,23.8496317 15.9625053,22.1390449 15.9625053,20.0289292 C15.9625053,17.9188135 17.6647253,16.2082267 19.7645201,16.2082267 Z" id="Combined-Shape"></path>
                </g>
                <g id="maquina" transform="translate(51.3333, 7.2727)" fill="#50B1FD" fill-rule="nonzero">
                    <path d="M0,19.5703858 L0,5.56943786 L2.81208499,5.56943786 L2.81208499,11.5772111 L2.5564409,11.5772111 C2.5564409,10.167662 2.73539177,8.98587544 3.09329349,8.03185136 C3.45119522,7.07782728 3.98378707,6.35586311 4.69106906,5.86595886 C5.39835104,5.3760546 6.28032315,5.13110247 7.33698539,5.13110247 L7.49037185,5.13110247 C8.56407703,5.13110247 9.45457061,5.3760546 10.1618526,5.86595886 C10.8691346,6.35586311 11.3974657,7.07782728 11.7468459,8.03185136 C12.0962262,8.98587544 12.2709163,10.167662 12.2709163,11.5772111 L11.376162,11.5772111 C11.376162,10.167662 11.5593736,8.98587544 11.9257968,8.03185136 C12.29222,7.07782728 12.8290726,6.35586311 13.5363546,5.86595886 C14.2436366,5.3760546 15.1256087,5.13110247 16.1822709,5.13110247 L16.3356574,5.13110247 C17.4093625,5.13110247 18.3041169,5.3760546 19.0199203,5.86595886 C19.7357238,6.35586311 20.2768371,7.07782728 20.6432603,8.03185136 C21.0096835,8.98587544 21.1928951,10.167662 21.1928951,11.5772111 L21.1928951,19.5703858 L17.6394422,19.5703858 L17.6394422,11.2420135 C17.6394422,10.3653427 17.417884,9.66486555 16.9747676,9.14058205 C16.5316512,8.61629854 15.9010624,8.35415679 15.0830013,8.35415679 C14.2649402,8.35415679 13.6087871,8.62489335 13.1145418,9.16636648 C12.6202966,9.70783961 12.373174,10.4341012 12.373174,11.3451512 L12.373174,19.5703858 L8.81972112,19.5703858 L8.81972112,11.2420135 C8.81972112,10.3653427 8.5981629,9.66486555 8.15504648,9.14058205 C7.71193006,8.61629854 7.0813413,8.35415679 6.26328021,8.35415679 C5.44521912,8.35415679 4.78906596,8.62489335 4.29482072,9.16636648 C3.80057548,9.70783961 3.55345286,10.4341012 3.55345286,11.3451512 L3.55345286,19.5703858 L0,19.5703858 Z" id="Path"></path>
                    <path d="M32.1344622,19.5703858 L32.1344622,15.4190919 L31.5464807,15.4190919 L31.5464807,10.8036781 C31.5464807,9.99576579 31.3504869,9.39412899 30.9584993,8.99876766 C30.5665117,8.60340633 29.9614874,8.40572566 29.1434263,8.40572566 C28.7173528,8.40572566 28.2060646,8.41432047 27.6095618,8.4315101 C27.0130589,8.44869972 26.4122953,8.47018675 25.8072709,8.49597118 C25.2022466,8.52175562 24.6611332,8.55183746 24.1839309,8.5862167 L24.1839309,5.54365343 C24.5759185,5.50927418 25.019035,5.47489493 25.5132802,5.44051569 C26.0075255,5.40613644 26.5145529,5.38464941 27.0343625,5.3760546 C27.5541722,5.36745979 28.0441567,5.36316239 28.5043161,5.36316239 C29.935923,5.36316239 31.124668,5.55224824 32.0705511,5.93041995 C33.0164343,6.30859165 33.7322377,6.90163365 34.2179615,7.70954593 C34.7036853,8.51745821 34.9465471,9.57462003 34.9465471,10.8810314 L34.9465471,19.5703858 L32.1344622,19.5703858 Z M27.6606906,19.9313679 C26.6551571,19.9313679 25.773185,19.7508769 25.0147742,19.3898948 C24.2563634,19.0289127 23.668382,18.513224 23.25083,17.8428287 C22.833278,17.1724334 22.624502,16.3645211 22.624502,15.4190919 C22.624502,14.3877145 22.8758853,13.5454229 23.3786521,12.8922173 C23.8814188,12.2390116 24.5887008,11.7491073 25.500498,11.4225045 C26.4122953,11.0959017 27.4817397,10.9326002 28.7088313,10.9326002 L31.9299469,10.9326002 L31.9299469,13.0727083 L28.6577025,13.0727083 C27.8396414,13.0727083 27.2133134,13.2746864 26.7787185,13.6786425 C26.3441235,14.0825987 26.126826,14.6025848 26.126826,15.2386008 C26.126826,15.8746169 26.3441235,16.3903056 26.7787185,16.7856669 C27.2133134,17.1810282 27.8396414,17.3787089 28.6577025,17.3787089 C29.1519478,17.3787089 29.6078464,17.2884634 30.0253984,17.1079723 C30.4429504,16.9274813 30.7923307,16.6180681 31.0735392,16.1797327 C31.3547477,15.7413973 31.5123949,15.1440579 31.5464807,14.3877145 L32.4156707,15.3933074 C32.330456,16.3731159 32.0961155,17.1982178 31.7126494,17.8686131 C31.3291833,18.5390084 30.8008521,19.0503997 30.127656,19.402787 C29.4544599,19.7551743 28.6321381,19.9313679 27.6606906,19.9313679 Z" id="Shape"></path>
                    <path d="M47.7543161,24.7272727 L47.7543161,15.4190919 L48.8024568,13.768888 C48.751328,15.1096786 48.478641,16.2484912 47.9843958,17.1853256 C47.4901505,18.1221601 46.8254759,18.831232 45.9903718,19.3125415 C45.1552678,19.7938509 44.1923417,20.0345056 43.1015936,20.0345056 C42.1131031,20.0345056 41.2183488,19.8497172 40.4173307,19.4801403 C39.6163125,19.1105634 38.9303342,18.5948747 38.3593958,17.9330742 C37.7884573,17.2712737 37.3453409,16.5063355 37.0300465,15.6382596 C36.7147521,14.7701836 36.5571049,13.8290517 36.5571049,12.814864 L36.5571049,12.2733908 C36.5571049,11.2763927 36.7190128,10.3438557 37.0428287,9.47577969 C37.3666445,8.60770373 37.8225432,7.85136032 38.4105246,7.20674945 C38.998506,6.56213859 39.6972665,6.05504471 40.5068061,5.68546782 C41.3163457,5.31589092 42.2238822,5.13110247 43.2294157,5.13110247 C44.3883355,5.13110247 45.393869,5.38035201 46.2460159,5.87885108 C47.0981629,6.37735014 47.7670983,7.10361172 48.252822,8.05763579 C48.7385458,9.01165987 49.0069721,10.1762568 49.0581009,11.5514267 L48.4956839,11.5514267 L48.4956839,5.56943786 L51.3077689,5.56943786 L51.3077689,24.7272727 L47.7543161,24.7272727 Z M44.0219124,16.9661579 C44.7206729,16.9661579 45.3597831,16.8071539 45.939243,16.4891459 C46.518703,16.1711379 46.9831231,15.707018 47.3325033,15.0967864 C47.6818836,14.4865548 47.8565737,13.768888 47.8565737,12.9437861 L47.8565737,11.9124088 C47.8565737,11.0873069 47.6776228,10.3954245 47.3197211,9.83676178 C46.9618194,9.27809903 46.4931386,8.84835845 45.9136786,8.54754005 C45.3342187,8.24672165 44.7036299,8.09631245 44.0219124,8.09631245 C43.2549801,8.09631245 42.5775232,8.28110089 41.9895418,8.65067779 C41.4015604,9.02025468 40.9414011,9.54453819 40.6090637,10.2235283 C40.2767264,10.9025184 40.1105578,11.6803488 40.1105578,12.5570196 C40.1105578,13.4336904 40.2809872,14.202926 40.6218459,14.8647265 C40.9627047,15.526527 41.4271248,16.0422157 42.0151062,16.4117926 C42.6030876,16.7813695 43.272023,16.9661579 44.0219124,16.9661579 Z" id="Shape"></path>
                    <path d="M58.7981408,20.0087212 C57.1961045,20.0087212 55.9562306,19.4758429 55.0785193,18.4100863 C54.2008079,17.3443296 53.7619522,15.7628843 53.7619522,13.6657503 L53.7619522,5.54365343 L57.315405,5.54365343 L57.315405,13.9751635 C57.315405,14.8346447 57.5540062,15.5179322 58.0312085,16.0250261 C58.5084108,16.5321199 59.1560425,16.7856669 59.9741036,16.7856669 C60.7921647,16.7856669 61.4611,16.5192277 61.9809097,15.9863494 C62.5007193,15.4534711 62.7606242,14.7315069 62.7606242,13.8204569 L62.7606242,5.54365343 L66.314077,5.54365343 L66.314077,19.5703858 L63.501992,19.5703858 L63.501992,13.6141814 L63.7832005,13.6141814 C63.7832005,15.0237305 63.6042497,16.2012197 63.2463479,17.146649 C62.8884462,18.0920782 62.3515936,18.8054476 61.6357902,19.286757 C60.9199867,19.7680665 60.0252324,20.0087212 58.9515272,20.0087212 L58.7981408,20.0087212 Z" id="Path"></path>
                    <path d="M69.7908367,19.5703858 L69.7908367,5.56943786 L73.3442895,5.56943786 L73.3442895,19.5703858 L69.7908367,19.5703858 Z M67.8479416,8.25101905 L67.8479416,5.56943786 L73.3442895,5.56943786 L73.3442895,8.25101905 L67.8479416,8.25101905 Z M71.0946215,3.89344962 C70.395861,3.89344962 69.8803121,3.70866117 69.5479748,3.33908427 C69.2156375,2.96950738 69.0494688,2.50109015 69.0494688,1.93383259 C69.0494688,1.36657503 69.2156375,0.902455209 69.5479748,0.541473125 C69.8803121,0.180491042 70.395861,0 71.0946215,0 C71.793382,0 72.3046702,0.180491042 72.6284861,0.541473125 C72.9523019,0.902455209 73.1142098,1.36657503 73.1142098,1.93383259 C73.1142098,2.50109015 72.9523019,2.96950738 72.6284861,3.33908427 C72.3046702,3.70866117 71.793382,3.89344962 71.0946215,3.89344962 Z" id="Shape"></path>
                    <path d="M76.1563745,19.5703858 L76.1563745,5.56943786 L78.9684595,5.56943786 L78.9684595,11.5772111 L78.7128154,11.5772111 C78.7128154,10.1504724 78.9002877,8.960091 79.2752324,8.00606693 C79.6501771,7.05204285 80.2083333,6.33437609 80.9497012,5.85306664 C81.6910691,5.3717572 82.6156485,5.13110247 83.7234396,5.13110247 L83.876826,5.13110247 C85.5299911,5.13110247 86.7826472,5.66827819 87.6347942,6.74262963 C88.4869411,7.81698107 88.9130146,9.41991342 88.9130146,11.5514267 L88.9130146,19.5703858 L85.3595618,19.5703858 L85.3595618,11.2420135 C85.3595618,10.3825323 85.1166999,9.68635258 84.6309761,9.15347426 C84.1452523,8.62059595 83.476317,8.35415679 82.62417,8.35415679 C81.7549801,8.35415679 81.0519588,8.62489335 80.5151062,9.16636648 C79.9782537,9.70783961 79.7098274,10.4341012 79.7098274,11.3451512 L79.7098274,19.5703858 L76.1563745,19.5703858 Z" id="Path"></path>
                    <path d="M99.8545817,19.5703858 L99.8545817,15.4190919 L99.2666003,15.4190919 L99.2666003,10.8036781 C99.2666003,9.99576579 99.0706065,9.39412899 98.6786189,8.99876766 C98.2866313,8.60340633 97.6816069,8.40572566 96.8635458,8.40572566 C96.4374723,8.40572566 95.9261842,8.41432047 95.3296813,8.4315101 C94.7331784,8.44869972 94.1324148,8.47018675 93.5273904,8.49597118 C92.9223661,8.52175562 92.3812528,8.55183746 91.9040505,8.5862167 L91.9040505,5.54365343 C92.2960381,5.50927418 92.7391545,5.47489493 93.2333997,5.44051569 C93.727645,5.40613644 94.2346724,5.38464941 94.7544821,5.3760546 C95.2742917,5.36745979 95.7642762,5.36316239 96.2244356,5.36316239 C97.6560425,5.36316239 98.8447875,5.55224824 99.7906707,5.93041995 C100.736554,6.30859165 101.452357,6.90163365 101.938081,7.70954593 C102.423805,8.51745821 102.666667,9.57462003 102.666667,10.8810314 L102.666667,19.5703858 L99.8545817,19.5703858 Z M95.3808101,19.9313679 C94.3752767,19.9313679 93.4933046,19.7508769 92.7348938,19.3898948 C91.976483,19.0289127 91.3885015,18.513224 90.9709495,17.8428287 C90.5533975,17.1724334 90.3446215,16.3645211 90.3446215,15.4190919 C90.3446215,14.3877145 90.5960049,13.5454229 91.0987716,12.8922173 C91.6015383,12.2390116 92.3088203,11.7491073 93.2206175,11.4225045 C94.1324148,11.0959017 95.2018592,10.9326002 96.4289509,10.9326002 L99.6500664,10.9326002 L99.6500664,13.0727083 L96.377822,13.0727083 C95.559761,13.0727083 94.9334329,13.2746864 94.498838,13.6786425 C94.064243,14.0825987 93.8469456,14.6025848 93.8469456,15.2386008 C93.8469456,15.8746169 94.064243,16.3903056 94.498838,16.7856669 C94.9334329,17.1810282 95.559761,17.3787089 96.377822,17.3787089 C96.8720673,17.3787089 97.3279659,17.2884634 97.7455179,17.1079723 C98.1630699,16.9274813 98.5124502,16.6180681 98.7936587,16.1797327 C99.0748672,15.7413973 99.2325144,15.1440579 99.2666003,14.3877145 L100.13579,15.3933074 C100.050575,16.3731159 99.8162351,17.1982178 99.4327689,17.8686131 C99.0493028,18.5390084 98.5209717,19.0503997 97.8477756,19.402787 C97.1745795,19.7551743 96.3522576,19.9313679 95.3808101,19.9313679 Z" id="Shape"></path>
                </g>
            </g>
        </g>
    </g>
</svg>